<mxfile host="app.diagrams.net" modified="2024-04-23T11:02:52.071Z" agent="Mozilla/5.0 (Windows NT 10.0; Win64; x64) AppleWebKit/537.36 (KHTML, like Gecko) Chrome/123.0.0.0 Safari/537.36" version="24.2.8" etag="5Qa6aDWgCxSQQZ9dTTr4" type="github">
  <diagram name="PÃ¡gina-1" id="mpDsd81lzv5kIVvViQFv">
    <mxGraphModel>
      <root>
        <mxCell id="0" />
        <mxCell id="1" parent="0" />
      </root>
    </mxGraphModel>
  </diagram>
</mxfile>
